# xmcd
#
# Track frame offsets: 
#        182
#        11795
#        21570
#        30595
#        41005
#        51497
#        62325
#        73125
#        85812
#        87990
#        101615
#        117090
#        125332
#        136515
#        144737
#        158272
#        172392
#        182775
#        191225
#        203492
#        215202
#        223297
#        232830
#        242835
#        252500
#        261225
#        270817
#        281950
#        293167
#        301512
#        311382
#        322560
#        332600
#        342057
#
# Disc length: 4705 seconds
#
# Revision: 1
# Processed by: cddbd v1.5.2PL0 Copyright (c) Steve Scherf et al.
# Submitted via: ExactAudioCopy v0.99pb4
#
DISCID=f2125f22
DTITLE=Bobby Bare - The All-American Boy disc 1
DYEAR=1900
DGENRE=Country
TTITLE0=Darlin' Don't
TTITLE1=Another Love Has Ended
TTITLE2=Down On the Corner Of Love
TTITLE3=The Life Of A Fool
TTITLE4=A Beggar
TTITLE5=The Livin' End
TTITLE6=Vampira
TTITLE7=Tender Years
TTITLE8=When The One You Love (Incomplete)
TTITLE9=All-American Boy
TTITLE10=What You Gonna Do Now
TTITLE11=I'm Hanging Up My Rifle (Alt)
TTITLE12=That's Where I Want To Be
TTITLE13=I'm Hanging Up My Rifle (Master)
TTITLE14=Lynching Party (Fratenity Master)
TTITLE15=Lynching Party (Alt)
TTITLE16=Sweet Singin' Sam (Rock 'N' Roll Version)
TTITLE17=Sweet Singin' Sam (Single Master)
TTITLE18=Lynching Party (RCA Release)
TTITLE19=More Than A Poor Boy Could Give
TTITLE20=No Letter From My Baby
TTITLE21=Book Of Love
TTITLE22=Can Can Ladies
TTITLE23=Lorena
TTITLE24=Zig Zag Twist
TTITLE25=Island Of Love
TTITLE26=Sailor Man
TTITLE27=These Tender Years
TTITLE28=Lovesick
TTITLE29=Great Big Car
TTITLE30=Brooklyn Bridge (Alt)
TTITLE31=That Mean Old Clock
TTITLE32=The Day My Rainbow Fell
TTITLE33=Brooklyn Bridge (Master)
EXTD=
EXTT0=
EXTT1=
EXTT2=
EXTT3=
EXTT4=
EXTT5=
EXTT6=
EXTT7=
EXTT8=
EXTT9=
EXTT10=
EXTT11=
EXTT12=
EXTT13=
EXTT14=
EXTT15=
EXTT16=
EXTT17=
EXTT18=
EXTT19=
EXTT20=
EXTT21=
EXTT22=
EXTT23=
EXTT24=
EXTT25=
EXTT26=
EXTT27=
EXTT28=
EXTT29=
EXTT30=
EXTT31=
EXTT32=
EXTT33=
PLAYORDER=
